{
    "asset" : {
        "generator" : "Khronos glTF Blender I/O v1.1.46",
        "version" : "2.0"
    },
    "scene" : 0,
    "scenes" : [
        {
            "name" : "Scene",
            "nodes" : [
                0,
                3,
                4
            ]
        }
    ],
    "nodes" : [
        {
            "mesh" : 0,
            "name" : "3Meshes",
            "translation" : [
                -1.4429008960723877,
                3.597038984298706,
                -4.271190643310547
            ]
        },
        {
            "mesh" : 1,
            "name" : "Cube",
            "translation" : [
                3.155871868133545,
                -3.826528549194336,
                -5.399831295013428
            ]
        },
        {
            "mesh" : 2,
            "name" : "Cube.001",
            "translation" : [
                -1.3058147430419922,
                -1.2110214233398438,
                1.9397683143615723
            ]
        },
        {
            "children" : [
                1,
                2
            ],
            "name" : "GroupingEmpty",
            "translation" : [
                2.1252336502075195,
                8.559165000915527,
                -5.0740132331848145
            ]
        },
        {
            "mesh" : 3,
            "name" : "Sphere",
            "translation" : [
                -2.0085256099700928,
                4.061316013336182,
                1.2598834037780762
            ]
        }
    ],
    "materials" : [
        {
            "doubleSided" : true,
            "emissiveFactor" : [
                0,
                0,
                0
            ],
            "name" : "Material.001",
            "pbrMetallicRoughness" : {
                "baseColorFactor" : [
                    0.8000000715255737,
                    0,
                    0.01609242893755436,
                    1
                ],
                "metallicFactor" : 0,
                "roughnessFactor" : 0.5
            }
        },
        {
            "doubleSided" : true,
            "emissiveFactor" : [
                0,
                0,
                0
            ],
            "name" : "Material.002",
            "pbrMetallicRoughness" : {
                "baseColorFactor" : [
                    0,
                    0.027317386120557785,
                    0.8000000715255737,
                    1
                ],
                "metallicFactor" : 0,
                "roughnessFactor" : 0.5
            }
        },
        {
            "doubleSided" : true,
            "emissiveFactor" : [
                0,
                0,
                0
            ],
            "name" : "Material.003",
            "pbrMetallicRoughness" : {
                "baseColorTexture" : {
                    "index" : 0,
                    "texCoord" : 0
                },
                "metallicFactor" : 0,
                "roughnessFactor" : 0.5
            }
        },
        {
            "doubleSided" : true,
            "emissiveFactor" : [
                0,
                0,
                0
            ],
            "name" : "Material",
            "pbrMetallicRoughness" : {
                "baseColorFactor" : [
                    0.800000011920929,
                    0.800000011920929,
                    0.800000011920929,
                    1
                ],
                "metallicFactor" : 0,
                "roughnessFactor" : 0.4000000059604645
            }
        }
    ],
    "meshes" : [
        {
            "name" : "Cylinder",
            "primitives" : [
                {
                    "attributes" : {
                        "POSITION" : 0,
                        "NORMAL" : 1,
                        "TEXCOORD_0" : 2
                    },
                    "indices" : 3,
                    "material" : 0
                },
                {
                    "attributes" : {
                        "POSITION" : 4,
                        "NORMAL" : 5,
                        "TEXCOORD_0" : 6
                    },
                    "indices" : 7,
                    "material" : 1
                },
                {
                    "attributes" : {
                        "POSITION" : 8,
                        "NORMAL" : 9,
                        "TEXCOORD_0" : 10
                    },
                    "indices" : 11,
                    "material" : 2
                }
            ]
        },
        {
            "name" : "Cube.002",
            "primitives" : [
                {
                    "attributes" : {
                        "POSITION" : 12,
                        "NORMAL" : 13,
                        "TEXCOORD_0" : 14
                    },
                    "indices" : 15,
                    "material" : 1
                }
            ]
        },
        {
            "name" : "Cube.003",
            "primitives" : [
                {
                    "attributes" : {
                        "POSITION" : 16,
                        "NORMAL" : 17,
                        "TEXCOORD_0" : 18
                    },
                    "indices" : 15,
                    "material" : 3
                }
            ]
        },
        {
            "name" : "Sphere",
            "primitives" : [
                {
                    "attributes" : {
                        "POSITION" : 19,
                        "NORMAL" : 20,
                        "TEXCOORD_0" : 21
                    },
                    "indices" : 22
                }
            ]
        }
    ],
    "textures" : [
        {
            "source" : 0
        }
    ],
    "images" : [
        {
            "bufferView" : 12,
            "mimeType" : "image/jpeg",
            "name" : "texture2"
        }
    ],
    "accessors" : [
        {
            "bufferView" : 0,
            "componentType" : 5126,
            "count" : 224,
            "max" : [
                2.3519177436828613,
                1,
                1
            ],
            "min" : [
                -1,
                -1,
                -4.246442794799805
            ],
            "type" : "VEC3"
        },
        {
            "bufferView" : 1,
            "componentType" : 5126,
            "count" : 224,
            "type" : "VEC3"
        },
        {
            "bufferView" : 2,
            "componentType" : 5126,
            "count" : 224,
            "type" : "VEC2"
        },
        {
            "bufferView" : 3,
            "componentType" : 5123,
            "count" : 462,
            "type" : "SCALAR"
        },
        {
            "bufferView" : 4,
            "componentType" : 5126,
            "count" : 160,
            "max" : [
                2.3519177436828613,
                1.1506017446517944,
                -2.2464427947998047
            ],
            "min" : [
                0.3519176244735718,
                -0.8493982553482056,
                -4.246442794799805
            ],
            "type" : "VEC3"
        },
        {
            "bufferView" : 5,
            "componentType" : 5126,
            "count" : 160,
            "type" : "VEC3"
        },
        {
            "bufferView" : 6,
            "componentType" : 5126,
            "count" : 160,
            "type" : "VEC2"
        },
        {
            "bufferView" : 7,
            "componentType" : 5123,
            "count" : 282,
            "type" : "SCALAR"
        },
        {
            "bufferView" : 8,
            "componentType" : 5126,
            "count" : 24,
            "max" : [
                4.071680068969727,
                -1.7977197170257568,
                -0.2246546745300293
            ],
            "min" : [
                1.2949070930480957,
                -5.177721977233887,
                -3.327735185623169
            ],
            "type" : "VEC3"
        },
        {
            "bufferView" : 9,
            "componentType" : 5126,
            "count" : 24,
            "type" : "VEC3"
        },
        {
            "bufferView" : 10,
            "componentType" : 5126,
            "count" : 24,
            "type" : "VEC2"
        },
        {
            "bufferView" : 11,
            "componentType" : 5123,
            "count" : 36,
            "type" : "SCALAR"
        },
        {
            "bufferView" : 13,
            "componentType" : 5126,
            "count" : 24,
            "max" : [
                1,
                1,
                1
            ],
            "min" : [
                -1,
                -1,
                -1
            ],
            "type" : "VEC3"
        },
        {
            "bufferView" : 14,
            "componentType" : 5126,
            "count" : 24,
            "type" : "VEC3"
        },
        {
            "bufferView" : 15,
            "componentType" : 5126,
            "count" : 24,
            "type" : "VEC2"
        },
        {
            "bufferView" : 16,
            "componentType" : 5123,
            "count" : 36,
            "type" : "SCALAR"
        },
        {
            "bufferView" : 17,
            "componentType" : 5126,
            "count" : 24,
            "max" : [
                1,
                1,
                1
            ],
            "min" : [
                -1,
                -1,
                -1
            ],
            "type" : "VEC3"
        },
        {
            "bufferView" : 18,
            "componentType" : 5126,
            "count" : 24,
            "type" : "VEC3"
        },
        {
            "bufferView" : 19,
            "componentType" : 5126,
            "count" : 24,
            "type" : "VEC2"
        },
        {
            "bufferView" : 20,
            "componentType" : 5126,
            "count" : 1984,
            "max" : [
                1.000000238418579,
                1,
                1.0000003576278687
            ],
            "min" : [
                -0.9999998211860657,
                -1,
                -1
            ],
            "type" : "VEC3"
        },
        {
            "bufferView" : 21,
            "componentType" : 5126,
            "count" : 1984,
            "type" : "VEC3"
        },
        {
            "bufferView" : 22,
            "componentType" : 5126,
            "count" : 1984,
            "type" : "VEC2"
        },
        {
            "bufferView" : 23,
            "componentType" : 5123,
            "count" : 2880,
            "type" : "SCALAR"
        }
    ],
    "bufferViews" : [
        {
            "buffer" : 0,
            "byteLength" : 2688,
            "byteOffset" : 0
        },
        {
            "buffer" : 0,
            "byteLength" : 2688,
            "byteOffset" : 2688
        },
        {
            "buffer" : 0,
            "byteLength" : 1792,
            "byteOffset" : 5376
        },
        {
            "buffer" : 0,
            "byteLength" : 924,
            "byteOffset" : 7168
        },
        {
            "buffer" : 0,
            "byteLength" : 1920,
            "byteOffset" : 8092
        },
        {
            "buffer" : 0,
            "byteLength" : 1920,
            "byteOffset" : 10012
        },
        {
            "buffer" : 0,
            "byteLength" : 1280,
            "byteOffset" : 11932
        },
        {
            "buffer" : 0,
            "byteLength" : 564,
            "byteOffset" : 13212
        },
        {
            "buffer" : 0,
            "byteLength" : 288,
            "byteOffset" : 13776
        },
        {
            "buffer" : 0,
            "byteLength" : 288,
            "byteOffset" : 14064
        },
        {
            "buffer" : 0,
            "byteLength" : 192,
            "byteOffset" : 14352
        },
        {
            "buffer" : 0,
            "byteLength" : 72,
            "byteOffset" : 14544
        },
        {
            "buffer" : 0,
            "byteLength" : 74771,
            "byteOffset" : 14616
        },
        {
            "buffer" : 0,
            "byteLength" : 288,
            "byteOffset" : 89388
        },
        {
            "buffer" : 0,
            "byteLength" : 288,
            "byteOffset" : 89676
        },
        {
            "buffer" : 0,
            "byteLength" : 192,
            "byteOffset" : 89964
        },
        {
            "buffer" : 0,
            "byteLength" : 72,
            "byteOffset" : 90156
        },
        {
            "buffer" : 0,
            "byteLength" : 288,
            "byteOffset" : 90228
        },
        {
            "buffer" : 0,
            "byteLength" : 288,
            "byteOffset" : 90516
        },
        {
            "buffer" : 0,
            "byteLength" : 192,
            "byteOffset" : 90804
        },
        {
            "buffer" : 0,
            "byteLength" : 23808,
            "byteOffset" : 90996
        },
        {
            "buffer" : 0,
            "byteLength" : 23808,
            "byteOffset" : 114804
        },
        {
            "buffer" : 0,
            "byteLength" : 15872,
            "byteOffset" : 138612
        },
        {
            "buffer" : 0,
            "byteLength" : 5760,
            "byteOffset" : 154484
        }
    ],
    "buffers" : [
        {
            "byteLength" : 160244,
            "uri" : "data:application/octet-stream;base64,"
        }
    ]
}
